<?xml version="1.0" encoding="UTF-8" standalone="no"?>
<svg width="354px" height="27px" viewBox="0 0 354 27" version="1.1" xmlns="http://www.w3.org/2000/svg" xmlns:xlink="http://www.w3.org/1999/xlink" xmlns:sketch="http://www.bohemiancoding.com/sketch/ns">
    <!-- Generator: Sketch 3.0.4 (8053) - http://www.bohemiancoding.com/sketch -->
    <title>amigo</title>
    <desc>Created with Sketch.</desc>
    <defs></defs>
    <g id="site" stroke="none" stroke-width="1" fill="none" fill-rule="evenodd" sketch:type="MSPage">
        <g id="Desktop-HD" sketch:type="MSArtboardGroup" transform="translate(-544.000000, -566.000000)" fill="#346844">
            <path d="M544.81424,581.976 C544.81424,584.016 546.25424,585.144 548.00624,585.144 C550.24736,585.144 553.44944,583.464 553.49744,583.464 L553.87184,585 L554.86544,585 L554.86544,575.712 C554.86544,573.072 553.18544,571.992 551.19344,572.016 C548.80928,572.04 546.812,572.31312 545.22224,572.74416 L545.22224,573.71376 C547.501279,573.48864 549.409759,573.32784 551.137759,573.336 C552.753919,573.34416 553.497439,574.18272 553.497439,575.712 C553.521439,575.736 553.497439,577.32 553.497439,577.32 C553.497439,577.344 548.006239,577.32 548.006239,577.32 C546.022399,577.32 544.814239,578.5512 544.814239,580.512 L544.81424,581.976 Z M546.182239,581.856 L546.182239,580.60704 C546.182239,579.602401 546.664159,578.77584 548.006239,578.688 L553.497439,578.35296 L553.497439,582.47856 C553.497439,582.47856 549.926239,583.79232 548.006239,583.776 C547.067839,583.76784 546.182239,583.30992 546.182239,581.856 L546.182239,581.856 Z M557.80736,585 L559.17536,585 L559.17536,574.84032 C560.99888,573.92784 561.99392,573.45552 563.93168,573.45552 C565.481599,573.45552 566.51552,574.60416 566.51552,576.18336 L566.51552,585 L567.88352,585 L567.88352,576.15168 C567.883519,575.93136 567.834559,575.1096 567.752959,574.91376 C569.377759,573.92256 570.805759,573.45552 572.742559,573.45552 C574.292479,573.45552 575.310559,574.60416 575.310559,576.18336 L575.310559,585 L576.678559,585 L576.678559,576.18336 C576.678559,573.849599 575.064799,572.08752 572.742559,572.08752 C570.679999,572.08752 568.675039,572.9928 567.427039,573.99216 C566.850559,572.824319 565.516159,572.08752 563.931679,572.08752 C562.019359,572.08752 560.614879,572.9112 559.175359,573.77568 L558.745279,572.256 L557.807359,572.256 L557.80736,585 Z M579.35888,570.1512 C579.35888,570.43008 579.55808,570.61344 579.83696,570.61344 L580.71872,570.61344 C580.9976,570.61344 581.1728,570.45408 581.1728,570.1512 L581.1728,568.78992 C581.1728,568.511041 581.021599,568.296001 580.71872,568.296001 L579.836959,568.296001 C579.518239,568.296001 579.358879,568.487041 579.358879,568.789921 L579.35888,570.1512 Z M579.549919,585.000001 L580.917919,585.000001 L580.917919,572.256001 L579.549919,572.256001 L579.549919,585.000001 Z M583.78256,582.1992 C583.78256,582.74112 583.94144,583.38984 584.44208,583.78416 L583.71056,585.67056 L583.71056,587.784 C583.71056,590.2392 585.26192,591.48 587.51792,591.48 L591.11792,591.48 C594.26192,591.48 594.71792,589.3056 594.71792,587.8656 L594.71792,586.4352 C594.717921,584.47584 593.570865,583.164 591.491361,583.164 L586.436481,583.164 C585.856281,583.164 585.134241,582.90672 585.134241,582.16848 C585.134241,581.33232 586.125921,581.22816 586.509921,581.22816 L590.253921,581.22816 C593.661922,581.22816 594.213922,578.184 594.213922,576.744 C594.213922,574.64928 593.546241,574.01472 593.225122,573.576 L595.413922,573.20928 L595.413922,572.208 L587.925922,572.208 C585.243682,572.208 583.782082,573.6552 583.782082,576.744 C583.782082,578.06496 584.109922,579.64128 585.410722,580.3296 C584.283922,580.47264 583.782562,581.431681 583.782562,582.1992 L583.78256,582.1992 Z M585.086722,587.784 L585.086722,584.16048 C585.086722,584.160481 585.536962,584.523841 586.468642,584.523841 L591.285442,584.523841 C592.936306,584.523841 593.349922,585.288481 593.349922,586.514401 L593.349922,587.865601 C593.349922,589.377121 592.623682,590.112001 591.117922,590.112001 L587.517922,590.112001 C586.637123,590.112001 585.086723,589.854241 585.086723,587.784001 L585.086722,587.784 Z M585.150083,576.744001 C585.150082,575.073121 585.647842,573.576001 587.844322,573.576001 L590.477602,573.576001 C592.136962,573.576001 592.798402,574.704961 592.845922,576.744001 C592.877602,578.092321 592.291042,579.852001 590.142562,579.852001 L587.757922,579.852001 C585.844643,579.852001 585.150083,578.385121 585.150083,576.744001 L585.150083,576.744001 Z M596.68688,578.808 C596.68688,583.368 597.9008,585.12 602.17232,585.12 C606.37856,585.12 607.67408,583.51152 607.67408,578.808 C607.67408,573.93984 606.41936,572.136 602.17232,572.136 C598.11872,572.136 596.68688,573.6 596.68688,578.808 L596.68688,578.808 Z M598.05488,578.808 C598.05488,573.88944 599.41904,573.504 602.17232,573.504 C605.01296,573.504 606.30608,574.02768 606.30608,578.808 C606.30608,583.22832 604.92752,583.752 602.17232,583.752 C599.50448,583.752 598.05488,583.33344 598.05488,578.808 L598.05488,578.808 Z M616.58288,578.688 C616.58288,581.616 617.37632,585.144 620.85632,585.144 C622.48832,585.144 624.93632,584.0808 625.56032,583.584 L625.95872,585 L626.90432,585 L626.90432,566.16 L625.57664,566.16 L625.57664,573.024 C624.04064,572.4 621.93632,572.064 620.85632,572.064 C617.23232,572.064 616.58288,575.424 616.58288,578.688 L616.58288,578.688 Z M617.95088,578.688 C617.95088,574.40064 619.15712,573.432 620.85632,573.432 C622.70432,573.432 623.90432,573.65664 625.56032,574.08864 L625.56032,582.59856 C624.27248,583.16736 622.75232,583.776 620.85632,583.776 C619.13312,583.776 617.95088,582.22416 617.95088,578.688 L617.95088,578.688 Z M629.85488,578.568 C629.85488,583.46208 630.79856,585.10368 634.04672,585.12 C636.03872,585.12816 637.85792,585 639.80192,584.448 L639.80192,583.4304 C638.00192,583.6944 636.25472,583.752 634.04672,583.752 C632.10128,583.752 631.22288,583.02432 631.22288,579.396 L636.76208,579.396 C638.98448,579.396 640.04192,578.53632 640.04192,576.672 C640.04192,572.448 638.14544,572.16 635.17808,572.16 C631.37264,572.16 629.85488,572.90448 629.85488,578.568 L629.85488,578.568 Z M631.22288,578.052 C631.22288,573.78864 632.26976,573.528 635.19392,573.528 C637.86752,573.528 638.67392,573.7848 638.67392,576.672 C638.67392,577.76592 637.916,578.052 636.76208,578.052 L631.22288,578.052 Z M647.88512,572.256 L652.97456,585 L654.35888,585 L659.54432,572.256 L658.06544,572.256 L653.68256,583.00416 L649.364,572.256 L647.88512,572.256 Z M660.93488,578.568 C660.93488,583.46208 661.87856,585.10368 665.12672,585.12 C667.11872,585.12816 668.93792,585 670.88192,584.448 L670.88192,583.4304 C669.08192,583.6944 667.33472,583.752 665.12672,583.752 C663.18128,583.752 662.30288,583.02432 662.30288,579.396 L667.84208,579.396 C670.06448,579.396 671.12192,578.53632 671.12192,576.672 C671.12192,572.448 669.22544,572.16 666.25808,572.16 C662.45264,572.16 660.93488,572.90448 660.93488,578.568 L660.93488,578.568 Z M662.30288,578.052 C662.30288,573.78864 663.34976,573.528 666.27392,573.528 C668.94752,573.528 669.75392,573.7848 669.75392,576.672 C669.75392,577.76592 668.996,578.052 667.84208,578.052 L662.30288,578.052 Z M673.79936,585 L675.16736,585 L675.16736,574.9776 C677.01536,574.0896 678.08912,573.49584 680.08256,573.49584 C680.77856,573.49584 681.47264,573.55968 681.85856,573.648 L681.85856,572.304 C681.50528,572.15184 680.77856,572.112 680.08256,572.112 C678.04928,572.112 676.63136,573.024 675.16736,573.864 L674.720959,572.256 L673.79936,572.256 L673.79936,585 Z M683.25488,578.688 C683.25488,581.616 684.04832,585.144 687.52832,585.144 C689.16032,585.144 691.60832,584.0808 692.23232,583.584 L692.63072,585 L693.57632,585 L693.57632,566.16 L692.24864,566.16 L692.24864,573.024 C690.71264,572.4 688.60832,572.064 687.52832,572.064 C683.90432,572.064 683.25488,575.424 683.25488,578.688 L683.25488,578.688 Z M684.62288,578.688 C684.62288,574.40064 685.82912,573.432 687.52832,573.432 C689.37632,573.432 690.57632,573.65664 692.23232,574.08864 L692.23232,582.59856 C690.94448,583.16736 689.42432,583.776 687.52832,583.776 C685.80512,583.776 684.62288,582.22416 684.62288,578.688 L684.62288,578.688 Z M696.25424,581.976 C696.25424,584.016 697.69424,585.144 699.44624,585.144 C701.68736,585.144 704.88944,583.464 704.93744,583.464 L705.31184,585 L706.30544,585 L706.30544,575.712 C706.30544,573.072 704.62544,571.992 702.63344,572.016 C700.24928,572.04 698.252,572.31312 696.66224,572.74416 L696.66224,573.71376 C698.941279,573.48864 700.849759,573.32784 702.577759,573.336 C704.193919,573.34416 704.937439,574.18272 704.937439,575.712 C704.961439,575.736 704.937439,577.32 704.937439,577.32 C704.937439,577.344 699.446239,577.32 699.446239,577.32 C697.462399,577.32 696.254239,578.5512 696.254239,580.512 L696.25424,581.976 Z M697.622239,581.856 L697.622239,580.60704 C697.622239,579.602401 698.104159,578.77584 699.446239,578.688 L704.937439,578.35296 L704.937439,582.47856 C704.937439,582.47856 701.366239,583.79232 699.446239,583.776 C698.507839,583.76784 697.622239,583.30992 697.622239,581.856 L697.622239,581.856 Z M708.98288,578.688 C708.98288,581.616 709.77632,585.144 713.25632,585.144 C714.88832,585.144 717.33632,584.0808 717.96032,583.584 L718.35872,585 L719.30432,585 L719.30432,566.16 L717.97664,566.16 L717.97664,573.024 C716.44064,572.4 714.33632,572.064 713.25632,572.064 C709.63232,572.064 708.98288,575.424 708.98288,578.688 L708.98288,578.688 Z M710.35088,578.688 C710.35088,574.40064 711.55712,573.432 713.25632,573.432 C715.10432,573.432 716.30432,573.65664 717.96032,574.08864 L717.96032,582.59856 C716.67248,583.16736 715.15232,583.776 713.25632,583.776 C711.53312,583.776 710.35088,582.22416 710.35088,578.688 L710.35088,578.688 Z M722.25488,578.568 C722.25488,583.46208 723.19856,585.10368 726.44672,585.12 C728.43872,585.12816 730.25792,585 732.20192,584.448 L732.20192,583.4304 C730.40192,583.6944 728.65472,583.752 726.44672,583.752 C724.50128,583.752 723.62288,583.02432 723.62288,579.396 L729.16208,579.396 C731.38448,579.396 732.44192,578.53632 732.44192,576.672 C732.44192,572.448 730.54544,572.16 727.57808,572.16 C723.77264,572.16 722.25488,572.90448 722.25488,578.568 L722.25488,578.568 Z M723.62288,578.052 C723.62288,573.78864 724.66976,573.528 727.59392,573.528 C730.26752,573.528 731.07392,573.7848 731.07392,576.672 C731.07392,577.76592 730.316,578.052 729.16208,578.052 L723.62288,578.052 Z M740.8448,585 L744.2048,585 L744.2048,575.844 C745.1948,575.088 745.9328,574.74 747.2852,574.74 C748.1264,574.74 748.6928,575.196 748.6928,576.4632 L748.6928,585 L752.0528,585 L752.0528,576.516 C752.052799,574.0872 751.215199,572.04 748.248799,572.04 C746.304799,572.04 745.299199,572.8248 744.204799,573.612 L743.544799,572.256 L740.844799,572.256 L740.8448,585 Z M755.15,569.248805 L755.733195,570.576 C756.542,570.108 756.996805,569.746805 757.986805,569.736 C758.890391,569.725195 759.501195,570.532805 760.673609,570.565195 C761.800391,570.586805 762.747195,569.64 763.394,568.934391 L762.813195,567.504 C762.177195,567.991195 761.39,568.458 760.602805,568.420805 C759.772391,568.41 759.168805,567.613195 758.048,567.580805 C756.866,567.580805 755.912,568.417195 755.15,569.248805 L755.15,569.248805 Z M753.670391,581.751609 C753.670391,583.408805 754.82,585.078 757.271609,585.144 C759.218,585.183609 761.007195,583.873195 761.147609,583.596 L761.854391,585 L764.507609,585 L764.507609,576.108 C764.507609,572.953195 762.642805,572.005195 759.898391,572.016 C757.522391,572.026805 755.769195,572.216391 754.091609,572.868 L754.091609,574.942805 C755.139195,574.867195 758.336,574.668 759.443609,574.668 C760.511609,574.668 761.147609,574.881609 761.147609,576.24 C761.171609,576.264 761.147609,577.056 761.147609,577.056 C761.147609,577.08 757.403609,577.056 757.403609,577.056 C754.672391,577.056 753.670391,578.697609 753.670391,580.551609 L753.670391,581.751609 Z M757.030391,581.275195 L757.030391,580.656 C757.030391,580.099195 757.176805,579.442805 758.063609,579.36 L761.147609,579.121195 L761.147609,581.457609 C761.147609,581.457609 759.627195,582.444 758.222,582.444 C757.604,582.444 757.030391,582.334805 757.030391,581.275195 L757.030391,581.275195 Z M766.3136,578.808 C766.3136,583.368 767.726,585.12 772.1276,585.12 C776.582,585.12 777.9416,583.536 777.9416,578.808 C777.9416,573.744 776.516,572.136 772.1276,572.136 C767.8196,572.136 766.3136,573.6 766.3136,578.808 L766.3136,578.808 Z M769.6736,578.808 C769.6736,575.2404 770.1392,574.836 772.1276,574.836 C774.1304,574.836 774.5816,575.238 774.5816,578.808 C774.5816,582.1632 774.02,582.42 772.1276,582.42 C770.342,582.42 769.6736,582.1056 769.6736,578.808 L769.6736,578.808 Z M785.5664,576.672 C785.5664,579.144 786.8864,580.0932 789.1424,580.0932 L792.116,580.0932 C792.8024,580.0932 792.9584,580.388401 792.9584,580.9248 L792.9584,581.52 C792.9584,582.3 792.3404,582.3276 792.116,582.3276 L786.0944,582.3276 L786.0944,584.4264 C786.98,585.0108 790.7816,585.12 793.1984,585.12 C794.7344,585.12 796.3184,584.4 796.3184,581.784 L796.3184,580.476 C796.3184,578.6232 795.3656,577.182 792.9344,577.182 L789.908,577.182 C789.35,577.182 788.9264,577.1604 788.9264,576.3552 L788.9264,575.7792 C788.9264,575.174401 789.0452,574.904401 789.908,574.904401 L795.6836,574.904401 L795.6836,572.784 C794.6996,572.2152 791.3276,572.136 788.8784,572.136 C786.4064,572.136 785.5664,573.6 785.5664,575.568 L785.5664,576.672 Z M797.9456,578.568 C797.9456,583.2432 798.9056,585.12 802.1456,585.12 C804.1376,585.12 806.8748,585.1188 808.6736,584.448 L808.6736,582.18 C806.8736,582.444 805.9376,582.4332 803.9936,582.4332 C802.1744,582.4332 801.3056,582.2964 801.3056,579.996 L805.3616,579.996 C807.6656,579.996 808.9136,579.0744 808.9136,576.804 C808.9136,572.58 807.2,572.16 803.5136,572.16 C799.472,572.16 797.9456,573.0912 797.9456,578.568 L797.9456,578.568 Z M801.3056,577.584 C801.2792,574.8312 801.9344,574.728 803.7092,574.728 C805.3244,574.728 805.5536,575.0232 805.5536,576.6324 C805.5536,577.2396 805.19,577.584 804.4904,577.584 L801.3056,577.584 Z M816.5456,578.616 C816.5456,583.878 818.3696,585.12 820.7456,585.12 C822.7376,585.096 824.9168,585.2532 826.7816,584.3052 L826.7816,582.1956 C826.7816,582.1956 824.3924,582.42 822.1844,582.42 C820.4564,582.42 819.9056,581.948401 819.9056,578.6856 C819.9056,574.928401 820.6388,574.836 822.1844,574.836 C824.3204,574.836 826.6136,574.98 826.6136,574.98 L826.6136,572.892 C824.5112,572.210401 821.9936,572.136 820.7456,572.136 C818.2976,572.136 816.5456,573.3648 816.5456,578.616 L816.5456,578.616 Z M827.9216,578.808 C827.9216,583.368 829.334,585.12 833.7356,585.12 C838.19,585.12 839.5496,583.536 839.5496,578.808 C839.5496,573.744 838.124,572.136 833.7356,572.136 C829.4276,572.136 827.9216,573.6 827.9216,578.808 L827.9216,578.808 Z M831.2816,578.808 C831.2816,575.2404 831.7472,574.836 833.7356,574.836 C835.7384,574.836 836.1896,575.238 836.1896,578.808 C836.1896,582.1632 835.628,582.42 833.7356,582.42 C831.95,582.42 831.2816,582.1056 831.2816,578.808 L831.2816,578.808 Z M841.5488,585 L844.9088,585 L844.9088,575.8656 C845.8988,575.1096 846.593599,574.7724 847.913599,574.7724 C848.765599,574.7724 849.332,575.3148 849.332,576.5064 L849.332,585 L852.692,585 L852.692,576.5376 C852.692,576.4188 852.6788,575.8788 852.6788,575.7732 C853.5764,575.0184 854.51,574.7724 855.7988,574.7724 C856.6508,574.7724 857.2064,575.3148 857.2064,576.5064 L857.2064,585 L860.5664,585 L860.5664,576.5592 C860.5664,573.9792 859.577599,572.072401 856.7624,572.072401 C854.7848,572.072401 853.3232,572.886 852.1808,573.72 C851.6552,572.6892 850.5032,572.072401 848.8772,572.072401 C846.9548,572.072401 846.0428,572.82 844.9088,573.6336 L844.2488,572.256 L841.5488,572.256 L841.5488,585 Z M862.5488,591.48 L865.8872,591.48 L865.8872,584.364 C867.0536,584.8956 868.6772,585.192 869.7572,585.192 C873.2888,585.192 873.9176,582.2544 873.9176,578.568 C873.9176,574.7424 872.894,572.112 869.7572,572.112 C868.244,572.112 866.696,572.8992 865.900401,573.54 L865.312401,572.256 L862.548801,572.256 L862.5488,591.48 Z M865.900401,582.0792 L865.900401,575.7708 C866.6156,575.3088 867.6236,574.983599 868.886,574.983599 C869.9708,574.983599 870.5576,575.8572 870.5576,578.7 C870.5576,581.952 869.9468,582.558 868.886,582.558 C867.724401,582.558 866.7776,582.4188 865.900401,582.0792 L865.900401,582.0792 Z M875.8928,585 L879.2528,585 L879.2528,576.8748 C880.0844,575.6832 881.0948,575.4564 882.4868,575.4564 C883.2092,575.4564 883.988,575.4888 884.3288,575.5212 L884.3288,572.2776 C883.987999,572.1468 883.459999,572.1252 882.909199,572.1252 C881.323999,572.1252 880.135999,573.0108 879.252799,573.864 L878.724799,572.256 L875.892799,572.256 L875.8928,585 Z M885.5264,581.7516 C885.5264,583.4088 886.676,585.078 889.1276,585.144 C891.074,585.1836 892.8632,583.8732 893.0036,583.596 L893.7104,585 L896.3636,585 L896.3636,576.108 C896.3636,572.9532 894.4988,572.0052 891.7544,572.016 C889.3784,572.0268 887.6252,572.2164 885.9476,572.868 L885.9476,574.9428 C886.9952,574.8672 890.192,574.668 891.2996,574.668 C892.3676,574.668 893.0036,574.881599 893.0036,576.24 C893.0276,576.264 893.0036,577.056 893.0036,577.056 C893.0036,577.08 889.2596,577.056 889.2596,577.056 C886.5284,577.056 885.5264,578.697599 885.5264,580.551599 L885.5264,581.7516 Z M888.8864,581.2752 L888.8864,580.656 C888.8864,580.0992 889.0328,579.4428 889.9196,579.36 L893.0036,579.1212 L893.0036,581.4576 C893.0036,581.4576 891.4832,582.444 890.078,582.444 C889.46,582.444 888.8864,582.3348 888.8864,581.2752 L888.8864,581.2752 Z" id="amigo" sketch:type="MSShapeGroup"></path>
        </g>
    </g>
</svg>