<?xml version="1.0" encoding="UTF-8" standalone="no"?>
<svg width="225px" height="63px" viewBox="0 0 225 63" version="1.1" xmlns="http://www.w3.org/2000/svg" xmlns:xlink="http://www.w3.org/1999/xlink" xmlns:sketch="http://www.bohemiancoding.com/sketch/ns">
    <!-- Generator: Sketch 3.0.4 (8053) - http://www.bohemiancoding.com/sketch -->
    <title>logo</title>
    <desc>Created with Sketch.</desc>
    <defs></defs>
    <g id="site" stroke="none" stroke-width="1" fill="none" fill-rule="evenodd" sketch:type="MSPage">
        <g id="Desktop-HD" sketch:type="MSArtboardGroup" transform="translate(-608.000000, -456.000000)">
            <g id="logo" sketch:type="MSLayerGroup" transform="translate(608.000000, 456.000000)">
                <g id="logo-3" transform="translate(0.000000, 2.513514)" sketch:type="MSShapeGroup">
                    <path d="M31.2539326,3.42342805 C15.2351124,3.42342805 3.37078652,15.2797958 3.37078652,29.7545654 L3.37078652,29.9000321 C3.37078652,44.3739752 15.0867978,56.0857027 31.105618,56.0857027 C47.1244382,56.0857027 58.988764,44.2293349 58.988764,29.7545654 L58.988764,29.6090986 C58.988764,15.1343291 47.2727528,3.42342805 31.2539326,3.42342805" id="Fill-1" fill="#00D97B"></path>
                    <path d="M31.2640449,0 C13.0609551,0 0,13.4730325 0,29.9215215 L0,30.0868247 C0,46.5353137 12.8924157,59.8430431 31.0955056,59.8430431 C49.2985955,59.8430431 62.3595506,46.3700106 62.3595506,29.9215215 L62.3595506,29.7562184 C62.3595506,13.3069028 49.4671348,0 31.2640449,0 L31.2640449,0 Z M37.341573,9.32144412 C40.7629213,10.5422078 35.5078652,18.4850237 34.1064607,20.4083258 C32.727809,22.2993937 30.3648876,23.208561 28.3146067,22.4779211 C21.2047753,19.9421709 28.4646067,6.15588897 37.341573,9.32144412 L37.341573,9.32144412 Z M13.7662921,24.6946362 C14.25,21.5745394 16.2446629,18.0205219 18.741573,17.5204799 C19.9373596,17.2807904 21.6353933,21.7679441 21.8890449,23.6598386 C22.1030899,24.7128196 21.9244382,25.8963901 21.3033708,26.9650749 C20.0536517,29.1156687 17.4884831,29.9901224 15.572191,28.918958 C14.1168539,28.10484 13.4544944,26.4063503 13.7662921,24.6946362 L13.7662921,24.6946362 Z M35.3485955,49.4058028 C33.9733146,51.7729438 30.4651685,53.1441333 27.6412921,51.9812257 C24.4365169,50.7712067 22.4696629,48.9123729 21.2182584,46.8204617 C18.7449438,46.8312064 16.1123596,46.1187498 13.4191011,44.0317977 C10.9592697,42.2407381 10.3786517,38.5718349 11.7488764,36.2137856 C13.4342697,33.313542 15.2039326,32.6754719 18.3050562,33.2937056 C22.4587079,33.4681004 23.680618,30.3827173 25.8185393,28.3395705 C27.544382,26.6890186 30.2384831,26.2823729 32.438764,27.5122283 C34.6845506,28.7668791 35.6974719,31.3282513 35.0477528,33.6639847 C34.2379213,36.5931563 32.5162921,39.339668 34.622191,42.4391019 C36.7255618,44.7822739 37.0710674,46.4419175 35.3485955,49.4058028 L35.3485955,49.4058028 Z M44.4261236,41.8332659 C43.0828652,42.9688985 41.2558989,43.2755358 39.7997191,42.4614178 C37.883427,41.3902535 37.341573,38.7801169 38.5912921,36.629523 C39.2123596,35.5600117 40.1603933,34.8070559 41.1935393,34.4508276 C42.9817416,33.7003514 47.7851124,32.8473871 48.1820225,33.9772341 C49.0162921,36.339416 46.9162921,39.8347509 44.4261236,41.8332659 L44.4261236,41.8332659 Z M38.9561798,28.4263546 C37.2707865,27.0692159 36.8629213,24.6111581 37.8202247,22.4845332 C38.7918539,20.3207151 43.0828652,11.8381844 45.8966292,14.1028375 C53.1977528,19.9818437 44.802809,33.1333616 38.9561798,28.4263546 L38.9561798,28.4263546 Z" id="Fill-2" fill="#FFFFFF"></path>
                </g>
                <path d="M94.1194783,10.7488515 C88.8355859,10.7488515 85.3852327,11.1195488 81.9341894,12.8665837 L81.9341894,18.8483985 C81.9341894,18.8483985 91.0069823,18.2661676 92.3411557,18.2661676 C94.4763162,18.2661676 95.623443,18.1295949 95.623443,20.9353248 C95.6765891,20.9880371 95.5961798,21.2218194 95.5961798,21.2218194 C95.5961798,21.5641068 90.1521589,21.2218194 90.1521589,21.2218194 C82.7331059,21.2218194 80.8988764,25.6777169 80.8988764,29.6482508 L80.8988764,31.8186953 C80.8988764,34.7832465 82.9101445,39.4417782 89.6351926,39.7067086 C93.5314205,39.86553 95.1244222,37.6290241 95.6048074,36.5172746 L97.6243579,39.3630521 L106.091493,39.3630521 L106.091493,20.4896666 C106.091493,12.6016533 101.592022,10.7488515 94.1194783,10.7488515 L94.1194783,10.7488515 Z M93.5486758,32.0832835 C92.5344141,32.0832835 91.2520064,32.2951594 91.2520064,30.1247149 L91.2520064,29.8070722 C91.2520064,28.9599108 91.2002408,27.5835732 92.9081621,27.4247518 L95.7383628,27.1598214 L95.7383628,30.3365908 C95.7383628,30.3365908 95.7369823,32.0832835 93.5486758,32.0832835 L93.5486758,32.0832835 Z M143.449382,10.8015638 C139.339535,10.8015638 136.62943,12.548941 134.28065,14.0310455 C133.159751,12.0194224 131.084294,10.8015638 127.347849,10.8015638 C123.024727,10.8015638 121.479695,12.29291 119.558154,14.0396027 L117.852994,11.2954845 L109.197432,11.2954845 L109.197432,39.3630521 L119.550562,39.3630521 L119.550562,20.3838998 C120.24077,18.9545076 121.404117,18.424989 123.379149,18.424989 C124.553194,18.424989 125.072231,18.9545076 125.072231,21.1780066 L125.072231,39.3630521 L135.425361,39.3630521 L135.425361,21.3895402 C135.425361,20.9130761 135.446067,20.4369544 135.446067,20.0132025 C136.193563,18.8483985 137.755506,18.424989 139.516573,18.424989 C140.690963,18.424989 141.292135,18.9545076 141.292135,21.1780066 L141.292135,39.3630521 L151.645265,39.3630521 L151.645265,21.3895402 C151.645265,15.4604377 150.814944,10.8015638 143.449382,10.8015638 L143.449382,10.8015638 Z M154.751204,39.3630521 L165.104334,39.3630521 L165.104334,11.2954845 L154.751204,11.2954845 L154.751204,39.3630521 Z M163.915104,0 L155.909029,0 C155.054896,0 154.751204,0.425805537 154.751204,1.21957004 L154.751204,7.413603 C154.751204,8.15499753 155.161878,8.55718523 155.909029,8.55718523 L163.915104,8.55718523 C164.662255,8.55718523 165.104334,8.20770979 165.104334,7.413603 L165.104334,1.21957004 C165.104334,0.478517798 164.715746,0 163.915104,0 L163.915104,0 Z M168.184735,21.2396183 C168.184735,24.0453482 168.985377,27.5613245 171.333812,29.0437713 C168.932231,29.9966994 167.917624,31.939865 167.917624,34.533719 C167.917624,38.2400071 169.811557,40.2437576 171.305859,40.879043 L168.555377,42.7243144 L168.555377,45.529702 C168.555377,51.1415041 172.561348,53.7391233 177.578475,53.7391233 L185.584896,53.7391233 C192.577055,53.7391233 195.128411,50.2943428 195.128411,45.529702 L195.128411,42.7243144 C195.128411,36.0011051 191.296372,33.5441661 185.584896,33.5441661 L179.073467,33.5441661 C177.894246,33.5441661 176.938307,33.5496427 176.938307,32.4378932 C176.938307,31.3261437 178.219334,31.4904417 179.073467,31.4904417 L184.197231,31.4904417 C192.523563,31.4904417 194.605233,27.5253843 194.605233,22.7607436 C194.605233,19.7961923 194.423708,18.9517693 193.996814,17.7339107 L196.163724,16.7840631 L196.163724,11.2954845 L178.4861,11.2954845 C171.547432,11.2954845 168.184735,14.5160667 168.184735,21.2396183 L168.184735,21.2396183 Z M178.908507,41.0744891 L182.809567,41.0744891 C184.147536,41.4167765 184.775281,42.089029 184.775281,42.9358481 L184.775281,44.1537067 C184.775281,45.1066348 185.051364,46.2088003 182.756075,46.2088003 L181.261429,46.2088003 C179.393379,46.2088003 178.908507,45.7946325 178.908507,43.8887762 L178.908507,41.0744891 L178.908507,41.0744891 Z M180.62126,18.8258075 L181.902287,18.8258075 C183.236461,18.8258075 184.250377,18.9551922 184.250377,21.2341417 C184.250377,23.8279957 183.610209,23.9601187 181.955433,23.9601187 L180.781388,23.9601187 C179.340233,23.9601187 178.539591,23.8279957 178.539591,21.2341417 C178.539591,19.8047495 178.699374,18.8258075 180.62126,18.8258075 L180.62126,18.8258075 Z M211.578154,11.013782 C201.757175,11.013782 198.287496,14.2429214 198.287496,25.7307714 C198.287496,35.7892292 201.597047,39.6536541 211.578154,39.6536541 C221.772881,39.6536541 224.868467,36.1595842 224.868467,25.7307714 C224.868467,14.5605641 221.506116,11.013782 211.578154,11.013782 L211.578154,11.013782 Z M214.513612,25.7307714 C214.513612,31.6071617 214.513612,32.0305712 211.578154,32.0305712 C208.855971,32.0305712 208.642352,31.289519 208.642352,25.7307714 C208.642352,19.6955598 208.429077,18.6368649 211.578154,18.6368649 C214.567103,18.6368649 214.513612,19.6425053 214.513612,25.7307714 L214.513612,25.7307714 Z" id="Fill-3" fill="#FFFFFF" sketch:type="MSShapeGroup"></path>
                <path d="M84.4569502,43.9228466 C83.5092937,43.9228466 82.5398957,44.3962301 82.0419101,44.793968 L81.6736838,43.9813777 L80.0561798,43.9813777 L80.0561798,55.961437 L82.1268058,55.961437 L82.1268058,51.532238 C82.8170144,51.8625453 83.8274799,52.0466959 84.5035393,52.0466959 C86.7149679,52.0466959 87.08561,50.2219618 87.08561,47.9327436 C87.08561,45.5565844 86.4212841,43.9228466 84.4569502,43.9228466 L84.4569502,43.9228466 Z M83.9537881,50.4109044 C83.2266533,50.4109044 82.4719101,50.3243057 82.1268058,50.1134567 L82.1268058,46.1952927 C82.4719101,45.9084558 83.1634992,45.7065063 83.9537881,45.7065063 C84.6332986,45.7065063 85.0008347,46.2490318 85.0008347,48.0145503 C85.0008347,50.0343883 84.618114,50.4109044 83.9537881,50.4109044 L83.9537881,50.4109044 Z M90.4024077,44.9955753 L90.0717978,43.9813777 L88.3386838,43.9813777 L88.3386838,51.8539881 L90.4093098,51.8539881 L90.4093098,46.8812367 C90.7544141,46.140869 91.5264125,45.9998466 92.3981461,45.9998466 C92.8505778,45.9998466 93.5152488,46.0200415 93.5152488,46.0402365 L93.5152488,44.0258751 C93.5152488,43.9444107 93.0041493,43.9235311 92.6590449,43.9235311 C91.6665249,43.9235311 90.9552648,44.4653721 90.4024077,44.9955753 L90.4024077,44.9955753 Z M98.2041814,43.8632886 C96.7160915,43.8701343 95.5858748,43.9875389 94.5505618,44.3924649 L94.5505618,45.681177 C95.2407705,45.6342836 97.2299518,45.5103756 97.9236116,45.5103756 C98.5920787,45.5103756 99.0013724,45.6774118 99.0013724,46.520808 C99.0162119,46.5358687 99.0120706,47.0619644 99.0120706,47.0619644 L96.6677769,47.0619644 C94.9574398,47.0619644 94.2054575,48.0131811 94.2054575,49.164636 L94.2054575,49.9097956 C94.2054575,50.9390539 94.9874639,51.9758425 96.5228331,52.0169169 C97.7413965,52.0415616 98.8930096,51.1906351 98.9810112,51.0188069 L99.4544944,51.8539881 L101.107544,51.8539881 L101.107544,46.4047726 C101.107544,44.4451772 99.9224559,43.8567851 98.2041814,43.8632886 L98.2041814,43.8632886 Z M99.0369181,49.7273565 C99.0369181,49.7273565 97.9936677,50.3400509 97.1136517,50.3400509 C96.7264446,50.3400509 96.2760835,50.272278 96.2760835,49.6140593 L96.2760835,49.2296706 C96.2760835,48.883618 96.4589888,48.4759537 97.0142616,48.4242683 L99.0369181,48.2764001 L99.0369181,49.7273565 L99.0369181,49.7273565 Z M108.10695,48.0056508 C108.10695,45.6719352 108.487945,45.6147732 109.455618,45.6147732 C110.793242,45.6147732 112.150883,45.7041103 112.150883,45.7041103 L112.150883,44.4071833 C111.11557,43.984116 109.336212,43.9379072 108.554896,43.9379072 C107.021942,43.9379072 105.963852,44.7008659 105.963852,47.9625226 C105.963852,51.2303405 107.167231,52.0018563 108.654976,52.0018563 C109.902528,51.9867956 111.11557,52.0846898 112.495987,51.4959555 L112.495987,50.1856793 C112.495987,50.1856793 110.958202,50.3249903 109.575714,50.3249903 C108.493467,50.3249903 108.10695,50.0323345 108.10695,48.0056508 L108.10695,48.0056508 Z M117.18492,43.8632886 C115.69683,43.8701343 114.566613,43.9875389 113.5313,44.3924649 L113.5313,45.681177 C114.221509,45.6342836 116.21,45.5103756 116.90366,45.5103756 C117.572127,45.5103756 117.981075,45.6774118 117.981075,46.520808 C117.995915,46.5358687 117.991429,47.0619644 117.991429,47.0619644 L115.64679,47.0619644 C113.936453,47.0619644 113.186196,48.0131811 113.186196,49.164636 L113.186196,49.9097956 C113.186196,50.9390539 113.967512,51.9758425 115.502536,52.0169169 C116.721445,52.0415616 117.872713,51.1906351 117.960714,51.0188069 L118.433852,51.8539881 L120.088283,51.8539881 L120.088283,46.4047726 C120.088283,44.4451772 118.903194,43.8567851 117.18492,43.8632886 L117.18492,43.8632886 Z M118.017657,49.7273565 C118.017657,49.7273565 116.974406,50.3400509 116.09439,50.3400509 C115.707183,50.3400509 115.256822,50.272278 115.256822,49.6140593 L115.256822,49.2296706 C115.256822,48.883618 115.439727,48.4759537 115.995,48.4242683 L118.017657,48.2764001 L118.017657,49.7273565 L118.017657,49.7273565 Z M123.329502,48.0056508 C123.329502,45.6719352 123.863724,45.6147732 124.831742,45.6147732 C126.169366,45.6147732 127.680578,45.7041103 127.680578,45.7041103 L127.680578,44.4071833 C126.300161,43.984116 124.712335,43.9379072 123.930674,43.9379072 C122.397721,43.9379072 121.263018,44.7008659 121.263018,47.9625226 C121.263018,51.2303405 122.409109,52.0018563 123.896854,52.0018563 C125.144406,51.9867956 126.300161,52.0846898 127.680578,51.4959555 L127.680578,50.1856793 C127.680578,50.1856793 126.161774,50.3249903 124.779286,50.3249903 C123.697039,50.3249903 123.329502,50.0323345 123.329502,48.0056508 L123.329502,48.0056508 Z M133.281621,43.8780069 C132.064093,43.8780069 131.476726,44.3821963 130.786517,44.8545529 L130.786517,40.2162162 L128.715891,40.2162162 L128.715891,51.8539881 L130.786517,51.8539881 L130.786517,46.2404746 C131.476726,45.7711986 131.843917,45.5548729 132.690803,45.5548729 C133.223989,45.5548729 133.547352,45.8382869 133.547352,46.6252057 L133.547352,51.8539881 L135.617978,51.8539881 L135.617978,46.6580653 C135.617978,45.1496046 135.138973,43.8780069 133.281621,43.8780069 L133.281621,43.8780069 Z M140.55435,43.9379072 C137.856669,43.9379072 136.913499,44.8470226 136.913499,48.0816386 C136.913499,50.9140669 137.798002,52.0018563 140.55435,52.0018563 C143.343483,52.0018563 144.195201,51.0181223 144.195201,48.0816386 C144.195201,44.9367019 143.302416,43.9379072 140.55435,43.9379072 L140.55435,43.9379072 Z M140.55435,50.3249903 C139.435867,50.3249903 139.0176,50.1298865 139.0176,48.0816386 C139.0176,45.8660122 139.309213,45.6147732 140.55435,45.6147732 C141.808459,45.6147732 142.090754,45.8643008 142.090754,48.0816386 C142.090754,50.1654843 141.739093,50.3249903 140.55435,50.3249903 L140.55435,50.3249903 Z M147.54996,44.9955753 L147.21935,43.9813777 L145.280899,43.9813777 L145.280899,51.8539881 L147.696629,51.8539881 L147.696629,46.8812367 C148.041734,46.140869 148.813732,45.9998466 149.685465,45.9998466 C150.137897,45.9998466 150.457464,46.0200415 150.802568,46.0402365 L150.802568,44.0258751 C150.457464,43.9444107 150.221413,43.9235311 149.876653,43.9235311 C148.883788,43.9235311 148.102817,44.4653721 147.54996,44.9955753 L147.54996,44.9955753 Z M153.816019,44.9955753 L153.485409,43.9813777 L151.837881,43.9813777 L151.837881,51.8539881 L153.908507,51.8539881 L153.908507,46.8812367 C154.253612,46.140869 155.02561,45.9998466 155.897343,45.9998466 C156.349775,45.9998466 156.669342,46.0200415 157.014446,46.0402365 L157.014446,44.0258751 C156.669342,43.9444107 156.460554,43.9235311 156.115795,43.9235311 C155.122929,43.9235311 154.369222,44.4653721 153.816019,44.9955753 L153.816019,44.9955753 Z M161.201597,43.9379072 C158.503917,43.9379072 157.560746,44.8470226 157.560746,48.0816386 C157.560746,50.9140669 158.445249,52.0018563 161.201597,52.0018563 C163.991075,52.0018563 164.842448,51.0181223 164.842448,48.0816386 C164.842448,44.9367019 163.949663,43.9379072 161.201597,43.9379072 L161.201597,43.9379072 Z M161.201597,50.3249903 C160.083459,50.3249903 159.664848,50.1298865 159.664848,48.0816386 C159.664848,45.8660122 159.956116,45.6147732 161.201597,45.6147732 C162.455706,45.6147732 162.738347,45.8643008 162.738347,48.0816386 C162.738347,50.1654843 162.38634,50.3249903 161.201597,50.3249903 L161.201597,50.3249903 Z" id="Fill-4" fill="#00D97B" sketch:type="MSShapeGroup"></path>
            </g>
        </g>
    </g>
</svg>